<svg width="300" height="305" viewBox="0 0 300 305" fill="none" xmlns="http://www.w3.org/2000/svg">
<rect x="1" y="1" width="298" height="303" rx="28" stroke="#3E2500" stroke-width="2"/>
<path d="M203.625 183.5C217.087 183.5 228 194.879 228 208.917M231.212 237.662L252.375 259.75M242.625 208.917C242.625 231.376 225.164 249.583 203.625 249.583C182.086 249.583 164.625 231.376 164.625 208.917C164.625 186.457 182.086 168.25 203.625 168.25C225.164 168.25 242.625 186.457 242.625 208.917Z" stroke="black" stroke-width="5.33333" stroke-linecap="round" stroke-linejoin="round"/>
<path d="M177.849 76.9655C178.723 75.8703 178.951 74.2819 178.425 72.9266C177.9 71.5713 176.718 70.694 175.423 70.694H136.655L139.454 63.6069C141.275 58.9963 144.717 55.4757 148.933 53.9108L175.242 44.1696L172.639 35L146.329 44.7439C139.849 47.1429 134.559 52.5529 131.758 59.6459L127.395 70.694H44.5782C43.2797 70.694 42.0989 71.5713 41.5748 72.9266C41.0496 74.2816 41.2777 75.8703 42.1507 76.9655L98.9809 148.19V178.012L76.2719 197.24C75.1318 198.203 74.6632 199.892 75.1087 201.427C75.555 202.964 76.809 204 78.2262 204H141.774C143.191 204 144.445 202.964 144.892 201.427C145.336 199.892 144.868 198.203 143.731 197.24L121.023 178.012V148.19L177.849 76.9655ZM115.784 182.91L131.835 196.502H88.1677L104.217 182.91C105.057 182.204 105.546 181.091 105.546 179.902V146.738C105.546 145.81 105.238 144.9 104.689 144.213L52.0091 78.192H124.432L116.203 99.0299H75.5747L110 142.334L144.424 99.0299H125.464L133.695 78.192H167.99L115.311 144.213C114.765 144.9 114.457 145.81 114.457 146.738V179.902C114.457 181.091 114.946 182.204 115.784 182.91Z" fill="black"/>
</svg>
